<?xml version="1.0" encoding="iso-8859-1"?>
<!-- Generator: Adobe Illustrator 19.0.0, SVG Export Plug-In . SVG Version: 6.00 Build 0)  -->
<svg version="1.1" id="Layer_1" xmlns="http://www.w3.org/2000/svg" xmlns:xlink="http://www.w3.org/1999/xlink" x="0px" y="0px"
	 viewBox="0 0 512 512" style="enable-background:new 0 0 512 512;" xml:space="preserve">
<path style="fill:#524E4D;" d="M386.059,145.905L133.517,291.71c-10.809,6.241-14.548,20.19-8.307,30.999l39.551,68.503h22.693
	l-1.197,37.233l19.514,33.801c6.241,10.809,20.19,14.546,31,8.306l252.542-145.805c10.809-6.241,14.546-20.19,8.306-30.999
	l-19.514-33.801h-22.693l1.197-37.233l-39.551-68.503C410.818,143.402,396.868,139.665,386.059,145.905z"/>
<rect x="299.936" y="157.096" transform="matrix(0.5 0.866 -0.866 0.5 442.6779 -115.5709)" style="fill:#181818;" width="42.982" height="336.988"/>
<path style="fill:#BEC8D6;" d="M325.649,38.414H34.04c-12.481,0-22.693,10.212-22.693,22.693V222.23
	c0,12.481,10.212,22.693,22.693,22.693h291.609c12.481,0,22.693-10.212,22.693-22.693V61.107
	C348.343,48.626,338.131,38.414,325.649,38.414z"/>
<path style="fill:#EE3840;" d="M127.88,132.054c0,12.481-10.212,22.693-22.693,22.693h-25.76c-12.481,0-22.693-10.212-22.693-22.693
	v-25.76c0-12.481,10.212-22.693,22.693-22.693h25.76c12.481,0,22.693,10.212,22.693,22.693V132.054z"/>
<g>
	<path style="fill:#11113F;" d="M359.689,222.828V60.907c0-18.77-15.27-34.04-34.04-34.04H34.04C15.27,26.867,0,42.138,0,60.907
		v161.92c0,18.77,15.27,34.04,34.04,34.04h291.609C344.419,256.868,359.689,241.597,359.689,222.828z M22.693,222.828V60.907
		c0-6.257,5.09-11.347,11.347-11.347h291.609c6.257,0,11.347,5.09,11.347,11.347v161.92c0,6.257-5.09,11.347-11.347,11.347H34.04
		C27.783,234.174,22.693,229.083,22.693,222.828z"/>
	<path style="fill:#11113F;" d="M507.447,288.274l-80.96-140.227c-9.703-16.804-26.171-24.194-38.313-17.186l-11.465,6.618
		c-5.427,3.133-7.287,10.072-4.153,15.5c3.133,5.426,10.071,7.285,15.5,4.153l10.465-6.042c1.579,0.587,5.255,3.006,8.314,8.302
		l34.277,59.37l-59.582,34.4c-5.427,3.134-7.287,10.072-4.153,15.5c2.101,3.64,5.915,5.676,9.836,5.676
		c1.924,0,3.876-0.491,5.663-1.523l59.582-34.4l10.146,17.573L190.411,413.14l-10.146-17.573l179.092-103.399
		c5.427-3.134,7.287-10.072,4.153-15.5c-3.134-5.427-10.074-7.288-15.5-4.153L168.918,375.915l-34.277-59.37
		c-1.503-2.603-1.896-5.657-1.107-8.603c0.789-2.944,2.657-5.394,5.259-6.897l20.194-11.658c5.427-3.133,7.287-10.072,4.154-15.5
		c-3.135-5.427-10.072-7.287-15.5-4.153l-20.195,11.658c-7.852,4.533-13.475,11.877-15.834,20.677
		c-2.358,8.8-1.159,17.971,3.374,25.823l39.948,69.192c0.001,0.001,0.001,0.003,0.002,0.005l0.002,0.003l21.487,37.217
		c0.001,0.002,0.002,0.003,0.002,0.006c0.001,0.001,0.002,0.002,0.002,0.003l19.514,33.801c4.534,7.853,11.877,13.475,20.676,15.834
		c2.949,0.79,5.938,1.181,8.906,1.18c5.89,0,11.696-1.539,16.918-4.555l252.54-145.805
		C511.242,325.389,516.831,304.529,507.447,288.274z M488.9,308.225c-0.789,2.944-2.657,5.394-5.26,6.897L231.1,460.926
		c-2.604,1.502-5.659,1.894-8.603,1.107c-2.944-0.79-5.394-2.659-6.898-5.261l-13.844-23.978l272.194-157.151l13.844,23.978
		C489.296,302.222,489.689,305.279,488.9,308.225z"/>
	<path style="fill:#11113F;" d="M302.956,188.788h-56.271c-6.267,0-11.347,5.081-11.347,11.347s5.08,11.347,11.347,11.347h56.271
		c6.267,0,11.347-5.081,11.347-11.347S309.223,188.788,302.956,188.788z"/>
	<path style="fill:#11113F;" d="M207.98,188.788h-56.271c-6.267,0-11.347,5.081-11.347,11.347s5.08,11.347,11.347,11.347h56.271
		c6.267,0,11.347-5.081,11.347-11.347S214.247,188.788,207.98,188.788z"/>
	<path style="fill:#11113F;" d="M113.005,188.788H56.733c-6.267,0-11.347,5.081-11.347,11.347s5.08,11.347,11.347,11.347h56.272
		c6.267,0,11.347-5.081,11.347-11.347S119.272,188.788,113.005,188.788z"/>
</g>
<g>
</g>
<g>
</g>
<g>
</g>
<g>
</g>
<g>
</g>
<g>
</g>
<g>
</g>
<g>
</g>
<g>
</g>
<g>
</g>
<g>
</g>
<g>
</g>
<g>
</g>
<g>
</g>
<g>
</g>
</svg>
